<mxfile host="app.diagrams.net" modified="2024-03-29T20:56:34.382Z" agent="Mozilla/5.0 (Windows NT 10.0; Win64; x64) AppleWebKit/537.36 (KHTML, like Gecko) Chrome/123.0.0.0 Safari/537.36" etag="kTrRhX_CvxaWPZ71-9QV" version="24.2.1" type="github">
  <diagram name="Página-1" id="Qi5SyBuaoFvArYondg6V">
    <mxGraphModel dx="819" dy="426" grid="1" gridSize="10" guides="1" tooltips="1" connect="1" arrows="1" fold="1" page="1" pageScale="1" pageWidth="827" pageHeight="1169" math="0" shadow="0">
      <root>
        <mxCell id="0" />
        <mxCell id="1" parent="0" />
        <mxCell id="2JDmJp3kpBO4vWRrlA2b-20" style="edgeStyle=orthogonalEdgeStyle;rounded=0;orthogonalLoop=1;jettySize=auto;html=1;entryX=0;entryY=0.5;entryDx=0;entryDy=0;endArrow=circle;endFill=0;exitX=1;exitY=0.5;exitDx=0;exitDy=0;" edge="1" parent="1" source="2JDmJp3kpBO4vWRrlA2b-3">
          <mxGeometry relative="1" as="geometry">
            <mxPoint x="300" y="104.73857142857135" as="sourcePoint" />
            <mxPoint x="380.0000000000023" y="104.71" as="targetPoint" />
          </mxGeometry>
        </mxCell>
        <mxCell id="2JDmJp3kpBO4vWRrlA2b-22" style="edgeStyle=orthogonalEdgeStyle;rounded=0;orthogonalLoop=1;jettySize=auto;html=1;endArrow=circle;endFill=0;" edge="1" parent="1" source="2JDmJp3kpBO4vWRrlA2b-3">
          <mxGeometry relative="1" as="geometry">
            <mxPoint x="160" y="220" as="targetPoint" />
          </mxGeometry>
        </mxCell>
        <mxCell id="2JDmJp3kpBO4vWRrlA2b-3" value="API de Ponto" style="html=1;dropTarget=0;whiteSpace=wrap;" vertex="1" parent="1">
          <mxGeometry x="70" y="60" width="180" height="90" as="geometry" />
        </mxCell>
        <mxCell id="2JDmJp3kpBO4vWRrlA2b-4" value="" style="shape=module;jettyWidth=8;jettyHeight=4;" vertex="1" parent="2JDmJp3kpBO4vWRrlA2b-3">
          <mxGeometry x="1" width="20" height="20" relative="1" as="geometry">
            <mxPoint x="-27" y="7" as="offset" />
          </mxGeometry>
        </mxCell>
        <mxCell id="2JDmJp3kpBO4vWRrlA2b-21" style="edgeStyle=orthogonalEdgeStyle;rounded=0;orthogonalLoop=1;jettySize=auto;html=1;entryX=1;entryY=0.5;entryDx=0;entryDy=0;endArrow=halfCircle;endFill=0;" edge="1" parent="1" source="2JDmJp3kpBO4vWRrlA2b-5">
          <mxGeometry relative="1" as="geometry">
            <mxPoint x="379.99999999999795" y="105" as="targetPoint" />
          </mxGeometry>
        </mxCell>
        <mxCell id="2JDmJp3kpBO4vWRrlA2b-5" value="Sistema de Relátorio" style="html=1;dropTarget=0;whiteSpace=wrap;" vertex="1" parent="1">
          <mxGeometry x="500" y="60" width="180" height="90" as="geometry" />
        </mxCell>
        <mxCell id="2JDmJp3kpBO4vWRrlA2b-6" value="" style="shape=module;jettyWidth=8;jettyHeight=4;" vertex="1" parent="2JDmJp3kpBO4vWRrlA2b-5">
          <mxGeometry x="1" width="20" height="20" relative="1" as="geometry">
            <mxPoint x="-27" y="7" as="offset" />
          </mxGeometry>
        </mxCell>
        <mxCell id="2JDmJp3kpBO4vWRrlA2b-23" style="edgeStyle=orthogonalEdgeStyle;rounded=0;orthogonalLoop=1;jettySize=auto;html=1;endArrow=halfCircle;endFill=0;" edge="1" parent="1" source="2JDmJp3kpBO4vWRrlA2b-7">
          <mxGeometry relative="1" as="geometry">
            <mxPoint x="160" y="220" as="targetPoint" />
          </mxGeometry>
        </mxCell>
        <mxCell id="2JDmJp3kpBO4vWRrlA2b-7" value="Sistema de Ponto" style="html=1;dropTarget=0;whiteSpace=wrap;" vertex="1" parent="1">
          <mxGeometry x="70" y="280" width="180" height="90" as="geometry" />
        </mxCell>
        <mxCell id="2JDmJp3kpBO4vWRrlA2b-8" value="" style="shape=module;jettyWidth=8;jettyHeight=4;" vertex="1" parent="2JDmJp3kpBO4vWRrlA2b-7">
          <mxGeometry x="1" width="20" height="20" relative="1" as="geometry">
            <mxPoint x="-27" y="7" as="offset" />
          </mxGeometry>
        </mxCell>
        <mxCell id="2JDmJp3kpBO4vWRrlA2b-9" value="Discovery Service" style="html=1;dropTarget=0;whiteSpace=wrap;" vertex="1" parent="1">
          <mxGeometry x="460" y="280" width="180" height="90" as="geometry" />
        </mxCell>
        <mxCell id="2JDmJp3kpBO4vWRrlA2b-10" value="" style="shape=module;jettyWidth=8;jettyHeight=4;" vertex="1" parent="2JDmJp3kpBO4vWRrlA2b-9">
          <mxGeometry x="1" width="20" height="20" relative="1" as="geometry">
            <mxPoint x="-27" y="7" as="offset" />
          </mxGeometry>
        </mxCell>
      </root>
    </mxGraphModel>
  </diagram>
</mxfile>
